<svg aria-hidden="true" style="position: absolute; width: 0; height: 0; overflow: hidden;" version="1.1" xmlns="http://www.w3.org/2000/svg" xmlns:xlink="http://www.w3.org/1999/xlink">
<defs>
<symbol id="telegram" viewBox="0 0 32 32">
<path d="M16 2.667c-7.36 0-13.333 5.973-13.333 13.333s5.973 13.333 13.333 13.333c7.36 0 13.333-5.973 13.333-13.333s-5.973-13.333-13.333-13.333zM22.186 11.733c-0.2 2.107-1.067 7.227-1.507 9.587-0.187 1-0.56 1.333-0.907 1.373-0.773 0.067-1.36-0.507-2.107-1-1.173-0.773-1.84-1.253-2.973-2-1.32-0.867-0.467-1.347 0.293-2.12 0.2-0.2 3.613-3.307 3.68-3.587 0.009-0.042 0.008-0.086-0.004-0.128s-0.033-0.080-0.063-0.112c-0.080-0.067-0.187-0.040-0.28-0.027-0.12 0.027-1.987 1.267-5.627 3.72-0.533 0.36-1.013 0.547-1.44 0.533-0.48-0.013-1.387-0.267-2.067-0.493-0.84-0.267-1.493-0.413-1.44-0.88 0.027-0.24 0.36-0.48 0.987-0.733 3.893-1.693 6.48-2.813 7.773-3.347 3.707-1.547 4.467-1.813 4.973-1.813 0.107 0 0.36 0.027 0.52 0.16 0.133 0.107 0.173 0.253 0.187 0.36-0.013 0.080 0.013 0.32 0 0.507z"></path>
</symbol>
<symbol id="quotes" viewBox="0 0 32 32">
<path d="M7.032 14c1.384 0 2.738 0.411 3.889 1.18s2.048 1.862 2.578 3.142c0.53 1.279 0.668 2.687 0.398 4.044s-0.937 2.605-1.916 3.584c-0.979 0.979-2.226 1.646-3.584 1.916s-2.765 0.132-4.044-0.398c-1.279-0.53-2.372-1.427-3.142-2.578s-1.18-2.504-1.18-3.889l-0.032-1c0-3.713 1.475-7.274 4.101-9.899s6.186-4.101 9.899-4.101v4c-1.314-0.004-2.615 0.253-3.829 0.756s-2.316 1.241-3.243 2.172c-0.36 0.359-0.693 0.746-0.994 1.156 0.359-0.057 0.724-0.086 1.096-0.086l0.002 0.002zM25.032 14c1.384 0 2.738 0.411 3.889 1.18s2.048 1.862 2.578 3.142c0.53 1.279 0.668 2.687 0.398 4.044s-0.937 2.605-1.916 3.584c-0.979 0.979-2.226 1.646-3.584 1.916s-2.765 0.132-4.044-0.398c-1.279-0.53-2.372-1.427-3.142-2.578s-1.18-2.504-1.18-3.889l-0.032-1c0-3.713 1.475-7.274 4.1-9.899s6.187-4.101 9.9-4.101v4c-1.314-0.004-2.615 0.253-3.829 0.756s-2.316 1.241-3.243 2.172c-0.36 0.359-0.693 0.746-0.994 1.156 0.359-0.057 0.725-0.084 1.098-0.084z"></path>
</symbol>
<symbol id="home" viewBox="0 0 32 32">
<path d="M5.334 25.333v-12c0-0.422 0.095-0.822 0.284-1.2s0.45-0.689 0.783-0.933l8-6c0.467-0.356 1-0.533 1.6-0.533s1.133 0.178 1.6 0.533l8 6c0.333 0.244 0.595 0.556 0.784 0.933s0.284 0.778 0.283 1.2v12c0 0.733-0.261 1.361-0.784 1.884s-1.15 0.784-1.883 0.783h-4c-0.378 0-0.694-0.128-0.949-0.384s-0.383-0.572-0.384-0.949v-6.667c0-0.378-0.128-0.694-0.384-0.949s-0.572-0.383-0.949-0.384h-2.667c-0.378 0-0.694 0.128-0.949 0.384s-0.383 0.572-0.384 0.949v6.667c0 0.378-0.128 0.695-0.384 0.951s-0.572 0.384-0.949 0.383h-4c-0.733 0-1.361-0.261-1.883-0.783s-0.783-1.15-0.784-1.884z"></path>
</symbol>
<symbol id="mail" viewBox="0 0 32 32">
<path d="M5.333 26.667c-0.733 0-1.361-0.261-1.883-0.783s-0.783-1.15-0.784-1.884v-16c0-0.733 0.261-1.361 0.784-1.883s1.15-0.783 1.883-0.784h21.333c0.733 0 1.361 0.261 1.884 0.784s0.784 1.15 0.783 1.883v16c0 0.733-0.261 1.361-0.783 1.884s-1.15 0.784-1.884 0.783h-21.333zM26.666 10.667l-9.967 6.233c-0.111 0.067-0.228 0.117-0.349 0.151s-0.239 0.050-0.351 0.049c-0.112-0.001-0.228-0.017-0.349-0.049s-0.238-0.082-0.351-0.151l-9.967-6.233v13.333h21.333v-13.333zM16 14.667l10.667-6.667h-21.333l10.667 6.667zM5.333 11v0z"></path>
</symbol>
<symbol id="phone" viewBox="0 0 32 32">
<path d="M25.64 20.347l-3.387-0.387c-0.398-0.047-0.802-0.003-1.181 0.129s-0.723 0.347-1.006 0.631l-2.453 2.453c-3.785-1.925-6.861-5.002-8.787-8.787l2.467-2.467c0.573-0.573 0.853-1.373 0.76-2.187l-0.387-3.36c-0.075-0.651-0.387-1.251-0.877-1.686s-1.122-0.675-1.777-0.674h-2.307c-1.507 0-2.76 1.253-2.667 2.76 0.707 11.387 9.813 20.48 21.187 21.187 1.507 0.093 2.76-1.16 2.76-2.667v-2.307c0.013-1.347-1-2.48-2.347-2.64z"></path>
</symbol>
<symbol id="github" viewBox="0 0 32 32">
<path d="M16 2.667c-1.751 0-3.485 0.345-5.102 1.015s-3.088 1.652-4.326 2.89c-2.5 2.501-3.905 5.892-3.905 9.428 0 5.893 3.827 10.893 9.12 12.667 0.667 0.107 0.88-0.307 0.88-0.667v-2.253c-3.693 0.8-4.48-1.787-4.48-1.787-0.613-1.547-1.48-1.96-1.48-1.96-1.213-0.827 0.093-0.8 0.093-0.8 1.333 0.093 2.040 1.373 2.040 1.373 1.16 2.027 3.12 1.427 3.88 1.107 0.12-0.867 0.467-1.453 0.84-1.787-2.96-0.333-6.067-1.48-6.067-6.56 0-1.48 0.507-2.667 1.373-3.613-0.133-0.333-0.6-1.72 0.133-3.52 0 0 1.12-0.36 3.667 1.36 1.053-0.293 2.2-0.44 3.333-0.44s2.28 0.147 3.333 0.44c2.547-1.72 3.667-1.36 3.667-1.36 0.733 1.8 0.267 3.187 0.133 3.52 0.867 0.947 1.373 2.133 1.373 3.613 0 5.093-3.12 6.213-6.093 6.547 0.48 0.413 0.92 1.227 0.92 2.467v3.653c0 0.36 0.213 0.787 0.893 0.667 5.293-1.787 9.107-6.773 9.107-12.667 0-1.751-0.345-3.485-1.015-5.102s-1.652-3.088-2.89-4.326c-1.238-1.238-2.708-2.22-4.326-2.89s-3.352-1.015-5.102-1.015z"></path>
</symbol>
<symbol id="linkedin" viewBox="0 0 32 32">
<path d="M25.333 4c0.707 0 1.386 0.281 1.886 0.781s0.781 1.178 0.781 1.886v18.667c0 0.707-0.281 1.386-0.781 1.886s-1.178 0.781-1.886 0.781h-18.667c-0.707 0-1.386-0.281-1.886-0.781s-0.781-1.178-0.781-1.886v-18.667c0-0.707 0.281-1.386 0.781-1.886s1.178-0.781 1.886-0.781h18.667zM24.667 24.667v-7.067c0-1.153-0.458-2.258-1.273-3.074s-1.921-1.273-3.074-1.273c-1.133 0-2.453 0.693-3.093 1.733v-1.48h-3.72v11.16h3.72v-6.573c0-1.027 0.827-1.867 1.853-1.867 0.495 0 0.97 0.197 1.32 0.547s0.547 0.825 0.547 1.32v6.573h3.72zM9.173 11.413c0.594 0 1.164-0.236 1.584-0.656s0.656-0.99 0.656-1.584c0-1.24-1-2.253-2.24-2.253-0.598 0-1.171 0.237-1.593 0.66s-0.66 0.996-0.66 1.593c0 1.24 1.013 2.24 2.253 2.24zM11.027 24.667v-11.16h-3.693v11.16h3.693z"></path>
</symbol>
</defs>
</svg>
